<svg 
  xmlns="http://www.w3.org/2000/svg"
  width="24"
  height="24"
  viewBox="0 0 50 50"
  fill="currentColor"
>
  <g>
    <path d="m25 31c-3.309 0-6-2.691-6-6s2.691-6 6-6 6 2.691 6 6-2.691 6-6 6zm0-10c-2.206 0-4 1.794-4 4s1.794 4 4 4 4-1.794 4-4-1.794-4-4-4z" />
  </g>
  <g>
    <path d="m4.999 26c-.183 0-.369-.05-.535-.156-.466-.295-.604-.914-.309-1.38.298-.468 7.427-11.464 20.845-11.464.554 0 13.658.13 20.845 11.464.295.467.157 1.084-.309 1.38-.466.295-1.085.157-1.38-.309-6.605-10.415-18.647-10.535-19.156-10.535-12.331 0-18.883 10.105-19.156 10.536-.19.3-.514.464-.845.464z" />
    <path d="m25 36c-6.986 0-13.236-4.167-15.923-10.615-.212-.51.028-1.095.538-1.308.511-.214 1.096.029 1.308.538 2.375 5.701 7.901 9.385 14.077 9.385s11.702-3.684 14.077-9.385c.212-.509.797-.753 1.308-.538.51.212.75.798.538 1.308-2.687 6.448-8.937 10.615-15.923 10.615z" />
  </g>
</svg>